<mxfile host="app.diagrams.net" agent="Mozilla/5.0 (Windows NT 10.0; Win64; x64) AppleWebKit/537.36 (KHTML, like Gecko) Chrome/127.0.0.0 Safari/537.36" version="24.7.7" pages="2">
  <diagram name="Página-1" id="Y4ZtjI1v1jouoihdBp8T">
    <mxGraphModel>
      <root>
        <mxCell id="0" />
        <mxCell id="1" parent="0" />
      </root>
    </mxGraphModel>
  </diagram>
  <diagram id="UXATlluo-iFPqBpr5DgI" name="Página-2">
    <mxGraphModel dx="1178" dy="910" grid="0" gridSize="10" guides="1" tooltips="1" connect="1" arrows="1" fold="1" page="0" pageScale="1" pageWidth="827" pageHeight="1169" math="0" shadow="0">
      <root>
        <mxCell id="0" />
        <mxCell id="1" parent="0" />
        <mxCell id="i-m1rZ2BCzPFvipgKAng-2" value="SEGURO_VIDA" style="swimlane;fontStyle=0;childLayout=stackLayout;horizontal=1;startSize=26;fillColor=none;horizontalStack=0;resizeParent=1;resizeParentMax=0;resizeLast=0;collapsible=1;marginBottom=0;whiteSpace=wrap;html=1;" vertex="1" parent="1">
          <mxGeometry x="318" y="415" width="140" height="157" as="geometry" />
        </mxCell>
        <mxCell id="i-m1rZ2BCzPFvipgKAng-3" value="ID_VIDA" style="text;strokeColor=none;fillColor=none;align=left;verticalAlign=top;spacingLeft=4;spacingRight=4;overflow=hidden;rotatable=0;points=[[0,0.5],[1,0.5]];portConstraint=eastwest;whiteSpace=wrap;html=1;" vertex="1" parent="i-m1rZ2BCzPFvipgKAng-2">
          <mxGeometry y="26" width="140" height="26" as="geometry" />
        </mxCell>
        <mxCell id="i-m1rZ2BCzPFvipgKAng-4" value="Profesion" style="text;strokeColor=none;fillColor=none;align=left;verticalAlign=top;spacingLeft=4;spacingRight=4;overflow=hidden;rotatable=0;points=[[0,0.5],[1,0.5]];portConstraint=eastwest;whiteSpace=wrap;html=1;" vertex="1" parent="i-m1rZ2BCzPFvipgKAng-2">
          <mxGeometry y="52" width="140" height="26" as="geometry" />
        </mxCell>
        <mxCell id="i-m1rZ2BCzPFvipgKAng-32" value="Prima_vida" style="text;strokeColor=none;fillColor=none;align=left;verticalAlign=top;spacingLeft=4;spacingRight=4;overflow=hidden;rotatable=0;points=[[0,0.5],[1,0.5]];portConstraint=eastwest;whiteSpace=wrap;html=1;" vertex="1" parent="i-m1rZ2BCzPFvipgKAng-2">
          <mxGeometry y="78" width="140" height="26" as="geometry" />
        </mxCell>
        <mxCell id="i-m1rZ2BCzPFvipgKAng-31" value="Profecion" style="text;strokeColor=none;fillColor=none;align=left;verticalAlign=top;spacingLeft=4;spacingRight=4;overflow=hidden;rotatable=0;points=[[0,0.5],[1,0.5]];portConstraint=eastwest;whiteSpace=wrap;html=1;" vertex="1" parent="i-m1rZ2BCzPFvipgKAng-2">
          <mxGeometry y="104" width="140" height="26" as="geometry" />
        </mxCell>
        <mxCell id="i-m1rZ2BCzPFvipgKAng-33" value="Edad" style="text;strokeColor=none;fillColor=none;align=left;verticalAlign=top;spacingLeft=4;spacingRight=4;overflow=hidden;rotatable=0;points=[[0,0.5],[1,0.5]];portConstraint=eastwest;whiteSpace=wrap;html=1;" vertex="1" parent="i-m1rZ2BCzPFvipgKAng-2">
          <mxGeometry y="130" width="140" height="26" as="geometry" />
        </mxCell>
        <mxCell id="i-m1rZ2BCzPFvipgKAng-5" value="&lt;span style=&quot;color: rgba(0, 0, 0, 0); font-family: monospace; font-size: 0px; text-wrap: nowrap;&quot;&gt;%3CmxGraphModel%3E%3Croot%3E%3CmxCell%20id%3D%220%22%2F%3E%3CmxCell%20id%3D%221%22%20parent%3D%220%22%2F%3E%3CmxCell%20id%3D%222%22%20value%3D%22%2B%20field%3A%20type%22%20style%3D%22text%3BstrokeColor%3Dnone%3BfillColor%3Dnone%3Balign%3Dleft%3BverticalAlign%3Dtop%3BspacingLeft%3D4%3BspacingRight%3D4%3Boverflow%3Dhidden%3Brotatable%3D0%3Bpoints%3D%5B%5B0%2C0.5%5D%2C%5B1%2C0.5%5D%5D%3BportConstraint%3Deastwest%3BwhiteSpace%3Dwrap%3Bhtml%3D1%3B%22%20vertex%3D%221%22%20parent%3D%221%22%3E%3CmxGeometry%20x%3D%225%22%20y%3D%22-227%22%20width%3D%22140%22%20height%3D%2226%22%20as%3D%22geometry%22%2F%3E%3C%2FmxCell%3E%3C%2Froot%3E%3C%2FmxGraphModel%3E&lt;/span&gt;&lt;span style=&quot;color: rgba(0, 0, 0, 0); font-family: monospace; font-size: 0px; text-wrap: nowrap;&quot;&gt;%3CmxGraphModel%3E%3Croot%3E%3CmxCell%20id%3D%220%22%2F%3E%3CmxCell%20id%3D%221%22%20parent%3D%220%22%2F%3E%3CmxCell%20id%3D%222%22%20value%3D%22%2B%20field%3A%20type%22%20style%3D%22text%3BstrokeColor%3Dnone%3BfillColor%3Dnone%3Balign%3Dleft%3BverticalAlign%3Dtop%3BspacingLeft%3D4%3BspacingRight%3D4%3Boverflow%3Dhidden%3Brotatable%3D0%3Bpoints%3D%5B%5B0%2C0.5%5D%2C%5B1%2C0.5%5D%5D%3BportConstraint%3Deastwest%3BwhiteSpace%3Dwrap%3Bhtml%3D1%3B%22%20vertex%3D%221%22%20parent%3D%221%22%3E%3CmxGeometry%20x%3D%225%22%20y%3D%22-227%22%20width%3D%22140%22%20height%3D%2226%22%20as%3D%22geometry%22%2F%3E%3C%2FmxCell%3E%3C%2Froot%3E%3C%2FmxGraphModel%3E&lt;/span&gt;&lt;span style=&quot;color: rgba(0, 0, 0, 0); font-family: monospace; font-size: 0px; text-wrap: nowrap;&quot;&gt;%3CmxGraphModel%3E%3Croot%3E%3CmxCell%20id%3D%220%22%2F%3E%3CmxCell%20id%3D%221%22%20parent%3D%220%22%2F%3E%3CmxCell%20id%3D%222%22%20value%3D%22%2B%20field%3A%20type%22%20style%3D%22text%3BstrokeColor%3Dnone%3BfillColor%3Dnone%3Balign%3Dleft%3BverticalAlign%3Dtop%3BspacingLeft%3D4%3BspacingRight%3D4%3Boverflow%3Dhidden%3Brotatable%3D0%3Bpoints%3D%5B%5B0%2C0.5%5D%2C%5B1%2C0.5%5D%5D%3BportConstraint%3Deastwest%3BwhiteSpace%3Dwrap%3Bhtml%3D1%3B%22%20vertex%3D%221%22%20parent%3D%221%22%3E%3CmxGeometry%20x%3D%225%22%20y%3D%22-227%22%20width%3D%22140%22%20height%3D%2226%22%20as%3D%22geometry%22%2F%3E%3C%2FmxCell%3E%3C%2Froot%3E%3C%2FmxGraphModel%3E&lt;/span&gt;&lt;span style=&quot;color: rgba(0, 0, 0, 0); font-family: monospace; font-size: 0px; text-wrap: nowrap;&quot;&gt;%3CmxGraphModel%3E%3Croot%3E%3CmxCell%20id%3D%220%22%2F%3E%3CmxCell%20id%3D%221%22%20parent%3D%220%22%2F%3E%3CmxCell%20id%3D%222%22%20value%3D%22%2B%20field%3A%20type%22%20style%3D%22text%3BstrokeColor%3Dnone%3BfillColor%3Dnone%3Balign%3Dleft%3BverticalAlign%3Dtop%3BspacingLeft%3D4%3BspacingRight%3D4%3Boverflow%3Dhidden%3Brotatable%3D0%3Bpoints%3D%5B%5B0%2C0.5%5D%2C%5B1%2C0.5%5D%5D%3BportConstraint%3Deastwest%3BwhiteSpace%3Dwrap%3Bhtml%3D1%3B%22%20vertex%3D%221%22%20parent%3D%221%22%3E%3CmxGeometry%20x%3D%225%22%20y%3D%22-227%22%20width%3D%22140%22%20height%3D%2226%22%20as%3D%22geometry%22%2F%3E%3C%2FmxCell%3E%3C%2Froot%3E%3C%2FmxGraphModel%3E&lt;/span&gt;" style="text;strokeColor=none;fillColor=none;align=left;verticalAlign=top;spacingLeft=4;spacingRight=4;overflow=hidden;rotatable=0;points=[[0,0.5],[1,0.5]];portConstraint=eastwest;whiteSpace=wrap;html=1;" vertex="1" parent="i-m1rZ2BCzPFvipgKAng-2">
          <mxGeometry y="156" width="140" height="1" as="geometry" />
        </mxCell>
        <mxCell id="i-m1rZ2BCzPFvipgKAng-6" value="CLIENTE" style="swimlane;fontStyle=0;childLayout=stackLayout;horizontal=1;startSize=26;fillColor=none;horizontalStack=0;resizeParent=1;resizeParentMax=0;resizeLast=0;collapsible=1;marginBottom=0;whiteSpace=wrap;html=1;" vertex="1" parent="1">
          <mxGeometry x="102" y="-351" width="140" height="160" as="geometry" />
        </mxCell>
        <mxCell id="i-m1rZ2BCzPFvipgKAng-7" value="ID_CLIENTE" style="text;strokeColor=none;fillColor=none;align=left;verticalAlign=top;spacingLeft=4;spacingRight=4;overflow=hidden;rotatable=0;points=[[0,0.5],[1,0.5]];portConstraint=eastwest;whiteSpace=wrap;html=1;" vertex="1" parent="i-m1rZ2BCzPFvipgKAng-6">
          <mxGeometry y="26" width="140" height="26" as="geometry" />
        </mxCell>
        <mxCell id="i-m1rZ2BCzPFvipgKAng-8" value="Documento" style="text;strokeColor=none;fillColor=none;align=left;verticalAlign=top;spacingLeft=4;spacingRight=4;overflow=hidden;rotatable=0;points=[[0,0.5],[1,0.5]];portConstraint=eastwest;whiteSpace=wrap;html=1;" vertex="1" parent="i-m1rZ2BCzPFvipgKAng-6">
          <mxGeometry y="52" width="140" height="26" as="geometry" />
        </mxCell>
        <mxCell id="i-m1rZ2BCzPFvipgKAng-26" value="Nombre" style="text;strokeColor=none;fillColor=none;align=left;verticalAlign=top;spacingLeft=4;spacingRight=4;overflow=hidden;rotatable=0;points=[[0,0.5],[1,0.5]];portConstraint=eastwest;whiteSpace=wrap;html=1;" vertex="1" parent="i-m1rZ2BCzPFvipgKAng-6">
          <mxGeometry y="78" width="140" height="26" as="geometry" />
        </mxCell>
        <mxCell id="i-m1rZ2BCzPFvipgKAng-27" value="Direccion" style="text;strokeColor=none;fillColor=none;align=left;verticalAlign=top;spacingLeft=4;spacingRight=4;overflow=hidden;rotatable=0;points=[[0,0.5],[1,0.5]];portConstraint=eastwest;whiteSpace=wrap;html=1;" vertex="1" parent="i-m1rZ2BCzPFvipgKAng-6">
          <mxGeometry y="104" width="140" height="26" as="geometry" />
        </mxCell>
        <mxCell id="i-m1rZ2BCzPFvipgKAng-9" value="Telefono" style="text;strokeColor=none;fillColor=none;align=left;verticalAlign=top;spacingLeft=4;spacingRight=4;overflow=hidden;rotatable=0;points=[[0,0.5],[1,0.5]];portConstraint=eastwest;whiteSpace=wrap;html=1;" vertex="1" parent="i-m1rZ2BCzPFvipgKAng-6">
          <mxGeometry y="130" width="140" height="30" as="geometry" />
        </mxCell>
        <mxCell id="i-m1rZ2BCzPFvipgKAng-10" value="SEGURO_HOGAR" style="swimlane;fontStyle=0;childLayout=stackLayout;horizontal=1;startSize=26;fillColor=none;horizontalStack=0;resizeParent=1;resizeParentMax=0;resizeLast=0;collapsible=1;marginBottom=0;whiteSpace=wrap;html=1;" vertex="1" parent="1">
          <mxGeometry x="352" y="-128" width="140" height="156" as="geometry">
            <mxRectangle x="352" y="-128" width="138" height="26" as="alternateBounds" />
          </mxGeometry>
        </mxCell>
        <mxCell id="i-m1rZ2BCzPFvipgKAng-11" value="ID_HOGAR" style="text;strokeColor=none;fillColor=none;align=left;verticalAlign=top;spacingLeft=4;spacingRight=4;overflow=hidden;rotatable=0;points=[[0,0.5],[1,0.5]];portConstraint=eastwest;whiteSpace=wrap;html=1;" vertex="1" parent="i-m1rZ2BCzPFvipgKAng-10">
          <mxGeometry y="26" width="140" height="26" as="geometry" />
        </mxCell>
        <mxCell id="i-m1rZ2BCzPFvipgKAng-12" value="Propiedad" style="text;strokeColor=none;fillColor=none;align=left;verticalAlign=top;spacingLeft=4;spacingRight=4;overflow=hidden;rotatable=0;points=[[0,0.5],[1,0.5]];portConstraint=eastwest;whiteSpace=wrap;html=1;" vertex="1" parent="i-m1rZ2BCzPFvipgKAng-10">
          <mxGeometry y="52" width="140" height="26" as="geometry" />
        </mxCell>
        <mxCell id="i-m1rZ2BCzPFvipgKAng-13" value="Contenido" style="text;strokeColor=none;fillColor=none;align=left;verticalAlign=top;spacingLeft=4;spacingRight=4;overflow=hidden;rotatable=0;points=[[0,0.5],[1,0.5]];portConstraint=eastwest;whiteSpace=wrap;html=1;" vertex="1" parent="i-m1rZ2BCzPFvipgKAng-10">
          <mxGeometry y="78" width="140" height="26" as="geometry" />
        </mxCell>
        <mxCell id="i-m1rZ2BCzPFvipgKAng-34" value="Prima" style="text;strokeColor=none;fillColor=none;align=left;verticalAlign=top;spacingLeft=4;spacingRight=4;overflow=hidden;rotatable=0;points=[[0,0.5],[1,0.5]];portConstraint=eastwest;whiteSpace=wrap;html=1;" vertex="1" parent="i-m1rZ2BCzPFvipgKAng-10">
          <mxGeometry y="104" width="140" height="26" as="geometry" />
        </mxCell>
        <mxCell id="i-m1rZ2BCzPFvipgKAng-35" value="Riesgo_auxiliar" style="text;strokeColor=none;fillColor=none;align=left;verticalAlign=top;spacingLeft=4;spacingRight=4;overflow=hidden;rotatable=0;points=[[0,0.5],[1,0.5]];portConstraint=eastwest;whiteSpace=wrap;html=1;" vertex="1" parent="i-m1rZ2BCzPFvipgKAng-10">
          <mxGeometry y="130" width="140" height="26" as="geometry" />
        </mxCell>
        <mxCell id="i-m1rZ2BCzPFvipgKAng-14" value="SEGURO_VEHICULO" style="swimlane;fontStyle=0;childLayout=stackLayout;horizontal=1;startSize=26;fillColor=none;horizontalStack=0;resizeParent=1;resizeParentMax=0;resizeLast=0;collapsible=1;marginBottom=0;whiteSpace=wrap;html=1;" vertex="1" parent="1">
          <mxGeometry x="-267" y="269" width="140" height="156" as="geometry" />
        </mxCell>
        <mxCell id="i-m1rZ2BCzPFvipgKAng-15" value="ID_vehiculo" style="text;strokeColor=none;fillColor=none;align=left;verticalAlign=top;spacingLeft=4;spacingRight=4;overflow=hidden;rotatable=0;points=[[0,0.5],[1,0.5]];portConstraint=eastwest;whiteSpace=wrap;html=1;" vertex="1" parent="i-m1rZ2BCzPFvipgKAng-14">
          <mxGeometry y="26" width="140" height="26" as="geometry" />
        </mxCell>
        <mxCell id="i-m1rZ2BCzPFvipgKAng-16" value="Categoria" style="text;strokeColor=none;fillColor=none;align=left;verticalAlign=top;spacingLeft=4;spacingRight=4;overflow=hidden;rotatable=0;points=[[0,0.5],[1,0.5]];portConstraint=eastwest;whiteSpace=wrap;html=1;" vertex="1" parent="i-m1rZ2BCzPFvipgKAng-14">
          <mxGeometry y="52" width="140" height="26" as="geometry" />
        </mxCell>
        <mxCell id="i-m1rZ2BCzPFvipgKAng-36" value="edad" style="text;strokeColor=none;fillColor=none;align=left;verticalAlign=top;spacingLeft=4;spacingRight=4;overflow=hidden;rotatable=0;points=[[0,0.5],[1,0.5]];portConstraint=eastwest;whiteSpace=wrap;html=1;" vertex="1" parent="i-m1rZ2BCzPFvipgKAng-14">
          <mxGeometry y="78" width="140" height="26" as="geometry" />
        </mxCell>
        <mxCell id="i-m1rZ2BCzPFvipgKAng-37" value="cobertura" style="text;strokeColor=none;fillColor=none;align=left;verticalAlign=top;spacingLeft=4;spacingRight=4;overflow=hidden;rotatable=0;points=[[0,0.5],[1,0.5]];portConstraint=eastwest;whiteSpace=wrap;html=1;" vertex="1" parent="i-m1rZ2BCzPFvipgKAng-14">
          <mxGeometry y="104" width="140" height="26" as="geometry" />
        </mxCell>
        <mxCell id="i-m1rZ2BCzPFvipgKAng-17" value="prima" style="text;strokeColor=none;fillColor=none;align=left;verticalAlign=top;spacingLeft=4;spacingRight=4;overflow=hidden;rotatable=0;points=[[0,0.5],[1,0.5]];portConstraint=eastwest;whiteSpace=wrap;html=1;" vertex="1" parent="i-m1rZ2BCzPFvipgKAng-14">
          <mxGeometry y="130" width="140" height="26" as="geometry" />
        </mxCell>
        <mxCell id="i-m1rZ2BCzPFvipgKAng-18" value="AGENTES" style="swimlane;fontStyle=0;childLayout=stackLayout;horizontal=1;startSize=26;fillColor=none;horizontalStack=0;resizeParent=1;resizeParentMax=0;resizeLast=0;collapsible=1;marginBottom=0;whiteSpace=wrap;html=1;" vertex="1" parent="1">
          <mxGeometry x="6" y="-73" width="140" height="130" as="geometry">
            <mxRectangle x="-52" y="-76" width="92" height="26" as="alternateBounds" />
          </mxGeometry>
        </mxCell>
        <mxCell id="i-m1rZ2BCzPFvipgKAng-19" value="Id_agente" style="text;strokeColor=none;fillColor=none;align=left;verticalAlign=top;spacingLeft=4;spacingRight=4;overflow=hidden;rotatable=0;points=[[0,0.5],[1,0.5]];portConstraint=eastwest;whiteSpace=wrap;html=1;" vertex="1" parent="i-m1rZ2BCzPFvipgKAng-18">
          <mxGeometry y="26" width="140" height="26" as="geometry" />
        </mxCell>
        <mxCell id="i-m1rZ2BCzPFvipgKAng-20" value="nombre" style="text;strokeColor=none;fillColor=none;align=left;verticalAlign=top;spacingLeft=4;spacingRight=4;overflow=hidden;rotatable=0;points=[[0,0.5],[1,0.5]];portConstraint=eastwest;whiteSpace=wrap;html=1;" vertex="1" parent="i-m1rZ2BCzPFvipgKAng-18">
          <mxGeometry y="52" width="140" height="26" as="geometry" />
        </mxCell>
        <mxCell id="i-m1rZ2BCzPFvipgKAng-21" value="telefono" style="text;strokeColor=none;fillColor=none;align=left;verticalAlign=top;spacingLeft=4;spacingRight=4;overflow=hidden;rotatable=0;points=[[0,0.5],[1,0.5]];portConstraint=eastwest;whiteSpace=wrap;html=1;" vertex="1" parent="i-m1rZ2BCzPFvipgKAng-18">
          <mxGeometry y="78" width="140" height="26" as="geometry" />
        </mxCell>
        <mxCell id="i-m1rZ2BCzPFvipgKAng-38" value="Direccion" style="text;strokeColor=none;fillColor=none;align=left;verticalAlign=top;spacingLeft=4;spacingRight=4;overflow=hidden;rotatable=0;points=[[0,0.5],[1,0.5]];portConstraint=eastwest;whiteSpace=wrap;html=1;" vertex="1" parent="i-m1rZ2BCzPFvipgKAng-18">
          <mxGeometry y="104" width="140" height="26" as="geometry" />
        </mxCell>
        <mxCell id="i-m1rZ2BCzPFvipgKAng-22" value="BENEFICIARIOS" style="swimlane;fontStyle=0;childLayout=stackLayout;horizontal=1;startSize=26;fillColor=none;horizontalStack=0;resizeParent=1;resizeParentMax=0;resizeLast=0;collapsible=1;marginBottom=0;whiteSpace=wrap;html=1;" vertex="1" parent="1">
          <mxGeometry x="91" y="471" width="140" height="78" as="geometry" />
        </mxCell>
        <mxCell id="i-m1rZ2BCzPFvipgKAng-23" value="Id_beneficiario" style="text;strokeColor=none;fillColor=none;align=left;verticalAlign=top;spacingLeft=4;spacingRight=4;overflow=hidden;rotatable=0;points=[[0,0.5],[1,0.5]];portConstraint=eastwest;whiteSpace=wrap;html=1;" vertex="1" parent="i-m1rZ2BCzPFvipgKAng-22">
          <mxGeometry y="26" width="140" height="26" as="geometry" />
        </mxCell>
        <mxCell id="i-m1rZ2BCzPFvipgKAng-24" value="Nombre" style="text;strokeColor=none;fillColor=none;align=left;verticalAlign=top;spacingLeft=4;spacingRight=4;overflow=hidden;rotatable=0;points=[[0,0.5],[1,0.5]];portConstraint=eastwest;whiteSpace=wrap;html=1;" vertex="1" parent="i-m1rZ2BCzPFvipgKAng-22">
          <mxGeometry y="52" width="140" height="26" as="geometry" />
        </mxCell>
        <mxCell id="i-m1rZ2BCzPFvipgKAng-39" value="Contrato_vida" style="swimlane;fontStyle=0;childLayout=stackLayout;horizontal=1;startSize=26;fillColor=none;horizontalStack=0;resizeParent=1;resizeParentMax=0;resizeLast=0;collapsible=1;marginBottom=0;whiteSpace=wrap;html=1;" vertex="1" parent="1">
          <mxGeometry x="315" y="161" width="140" height="78" as="geometry">
            <mxRectangle x="315" y="161" width="110" height="26" as="alternateBounds" />
          </mxGeometry>
        </mxCell>
        <mxCell id="i-m1rZ2BCzPFvipgKAng-40" value="Fecha" style="text;strokeColor=none;fillColor=none;align=left;verticalAlign=top;spacingLeft=4;spacingRight=4;overflow=hidden;rotatable=0;points=[[0,0.5],[1,0.5]];portConstraint=eastwest;whiteSpace=wrap;html=1;" vertex="1" parent="i-m1rZ2BCzPFvipgKAng-39">
          <mxGeometry y="26" width="140" height="26" as="geometry" />
        </mxCell>
        <mxCell id="i-m1rZ2BCzPFvipgKAng-87" value="Id_contrato_vida" style="text;strokeColor=none;fillColor=none;align=left;verticalAlign=top;spacingLeft=4;spacingRight=4;overflow=hidden;rotatable=0;points=[[0,0.5],[1,0.5]];portConstraint=eastwest;whiteSpace=wrap;html=1;" vertex="1" parent="i-m1rZ2BCzPFvipgKAng-39">
          <mxGeometry y="52" width="140" height="26" as="geometry" />
        </mxCell>
        <mxCell id="i-m1rZ2BCzPFvipgKAng-43" value="Cartera" style="swimlane;fontStyle=0;childLayout=stackLayout;horizontal=1;startSize=26;fillColor=none;horizontalStack=0;resizeParent=1;resizeParentMax=0;resizeLast=0;collapsible=1;marginBottom=0;whiteSpace=wrap;html=1;" vertex="1" parent="1">
          <mxGeometry x="-161" y="118" width="140" height="78" as="geometry" />
        </mxCell>
        <mxCell id="i-m1rZ2BCzPFvipgKAng-44" value="Id_cartera" style="text;strokeColor=none;fillColor=none;align=left;verticalAlign=top;spacingLeft=4;spacingRight=4;overflow=hidden;rotatable=0;points=[[0,0.5],[1,0.5]];portConstraint=eastwest;whiteSpace=wrap;html=1;" vertex="1" parent="i-m1rZ2BCzPFvipgKAng-43">
          <mxGeometry y="26" width="140" height="26" as="geometry" />
        </mxCell>
        <mxCell id="i-m1rZ2BCzPFvipgKAng-45" value="comision" style="text;strokeColor=none;fillColor=none;align=left;verticalAlign=top;spacingLeft=4;spacingRight=4;overflow=hidden;rotatable=0;points=[[0,0.5],[1,0.5]];portConstraint=eastwest;whiteSpace=wrap;html=1;" vertex="1" parent="i-m1rZ2BCzPFvipgKAng-43">
          <mxGeometry y="52" width="140" height="26" as="geometry" />
        </mxCell>
        <mxCell id="i-m1rZ2BCzPFvipgKAng-47" value="Contrato_hogar" style="swimlane;fontStyle=0;childLayout=stackLayout;horizontal=1;startSize=26;fillColor=none;horizontalStack=0;resizeParent=1;resizeParentMax=0;resizeLast=0;collapsible=1;marginBottom=0;whiteSpace=wrap;html=1;" vertex="1" parent="1">
          <mxGeometry x="142" y="155" width="140" height="78" as="geometry">
            <mxRectangle x="142" y="155" width="118" height="26" as="alternateBounds" />
          </mxGeometry>
        </mxCell>
        <mxCell id="i-m1rZ2BCzPFvipgKAng-48" value="direccion" style="text;strokeColor=none;fillColor=none;align=left;verticalAlign=top;spacingLeft=4;spacingRight=4;overflow=hidden;rotatable=0;points=[[0,0.5],[1,0.5]];portConstraint=eastwest;whiteSpace=wrap;html=1;" vertex="1" parent="i-m1rZ2BCzPFvipgKAng-47">
          <mxGeometry y="26" width="140" height="26" as="geometry" />
        </mxCell>
        <mxCell id="i-m1rZ2BCzPFvipgKAng-49" value="fecha" style="text;strokeColor=none;fillColor=none;align=left;verticalAlign=top;spacingLeft=4;spacingRight=4;overflow=hidden;rotatable=0;points=[[0,0.5],[1,0.5]];portConstraint=eastwest;whiteSpace=wrap;html=1;" vertex="1" parent="i-m1rZ2BCzPFvipgKAng-47">
          <mxGeometry y="52" width="140" height="26" as="geometry" />
        </mxCell>
        <mxCell id="i-m1rZ2BCzPFvipgKAng-51" value="Contrato_automovil" style="swimlane;fontStyle=0;childLayout=stackLayout;horizontal=1;startSize=26;fillColor=none;horizontalStack=0;resizeParent=1;resizeParentMax=0;resizeLast=0;collapsible=1;marginBottom=0;whiteSpace=wrap;html=1;" vertex="1" parent="1">
          <mxGeometry x="-264" y="-102" width="140" height="104" as="geometry" />
        </mxCell>
        <mxCell id="i-m1rZ2BCzPFvipgKAng-52" value="Matricula" style="text;strokeColor=none;fillColor=none;align=left;verticalAlign=top;spacingLeft=4;spacingRight=4;overflow=hidden;rotatable=0;points=[[0,0.5],[1,0.5]];portConstraint=eastwest;whiteSpace=wrap;html=1;" vertex="1" parent="i-m1rZ2BCzPFvipgKAng-51">
          <mxGeometry y="26" width="140" height="26" as="geometry" />
        </mxCell>
        <mxCell id="i-m1rZ2BCzPFvipgKAng-58" value="Fecha" style="text;strokeColor=none;fillColor=none;align=left;verticalAlign=top;spacingLeft=4;spacingRight=4;overflow=hidden;rotatable=0;points=[[0,0.5],[1,0.5]];portConstraint=eastwest;whiteSpace=wrap;html=1;" vertex="1" parent="i-m1rZ2BCzPFvipgKAng-51">
          <mxGeometry y="52" width="140" height="26" as="geometry" />
        </mxCell>
        <mxCell id="i-m1rZ2BCzPFvipgKAng-53" value="Descuentos" style="text;strokeColor=none;fillColor=none;align=left;verticalAlign=top;spacingLeft=4;spacingRight=4;overflow=hidden;rotatable=0;points=[[0,0.5],[1,0.5]];portConstraint=eastwest;whiteSpace=wrap;html=1;" vertex="1" parent="i-m1rZ2BCzPFvipgKAng-51">
          <mxGeometry y="78" width="140" height="26" as="geometry" />
        </mxCell>
        <mxCell id="i-m1rZ2BCzPFvipgKAng-60" value="" style="endArrow=none;html=1;rounded=0;dashed=1;dashPattern=1 2;fontSize=12;startSize=8;endSize=8;curved=1;entryX=0.5;entryY=0;entryDx=0;entryDy=0;" edge="1" parent="1" source="i-m1rZ2BCzPFvipgKAng-9" target="i-m1rZ2BCzPFvipgKAng-47">
          <mxGeometry relative="1" as="geometry">
            <mxPoint x="15" y="-124" as="sourcePoint" />
            <mxPoint x="175" y="-124" as="targetPoint" />
          </mxGeometry>
        </mxCell>
        <mxCell id="i-m1rZ2BCzPFvipgKAng-61" value="N" style="resizable=0;html=1;whiteSpace=wrap;align=right;verticalAlign=bottom;" connectable="0" vertex="1" parent="i-m1rZ2BCzPFvipgKAng-60">
          <mxGeometry x="1" relative="1" as="geometry" />
        </mxCell>
        <mxCell id="i-m1rZ2BCzPFvipgKAng-62" value="1" style="text;html=1;align=center;verticalAlign=middle;resizable=0;points=[];autosize=1;strokeColor=none;fillColor=none;fontSize=16;" vertex="1" parent="1">
          <mxGeometry x="151.5" y="-197.5" width="27" height="31" as="geometry" />
        </mxCell>
        <mxCell id="i-m1rZ2BCzPFvipgKAng-63" value="" style="endArrow=none;html=1;rounded=0;dashed=1;dashPattern=1 2;fontSize=12;startSize=8;endSize=8;curved=1;entryX=0.5;entryY=0;entryDx=0;entryDy=0;exitX=0.479;exitY=0.923;exitDx=0;exitDy=0;exitPerimeter=0;" edge="1" parent="1" source="i-m1rZ2BCzPFvipgKAng-87" target="i-m1rZ2BCzPFvipgKAng-22">
          <mxGeometry relative="1" as="geometry">
            <mxPoint x="261" y="223" as="sourcePoint" />
            <mxPoint x="254" y="545" as="targetPoint" />
          </mxGeometry>
        </mxCell>
        <mxCell id="i-m1rZ2BCzPFvipgKAng-64" value="N" style="resizable=0;html=1;whiteSpace=wrap;align=right;verticalAlign=bottom;" connectable="0" vertex="1" parent="i-m1rZ2BCzPFvipgKAng-63">
          <mxGeometry x="1" relative="1" as="geometry" />
        </mxCell>
        <mxCell id="i-m1rZ2BCzPFvipgKAng-65" value="1" style="text;html=1;align=center;verticalAlign=middle;resizable=0;points=[];autosize=1;strokeColor=none;fillColor=none;fontSize=16;" vertex="1" parent="1">
          <mxGeometry x="325" y="251" width="27" height="31" as="geometry" />
        </mxCell>
        <mxCell id="i-m1rZ2BCzPFvipgKAng-66" value="" style="endArrow=none;html=1;rounded=0;dashed=1;dashPattern=1 2;fontSize=12;startSize=8;endSize=8;curved=1;entryX=0.5;entryY=0;entryDx=0;entryDy=0;exitX=0.507;exitY=1.154;exitDx=0;exitDy=0;exitPerimeter=0;" edge="1" parent="1" source="i-m1rZ2BCzPFvipgKAng-87" target="i-m1rZ2BCzPFvipgKAng-2">
          <mxGeometry relative="1" as="geometry">
            <mxPoint x="386" y="253" as="sourcePoint" />
            <mxPoint x="394.5" y="485" as="targetPoint" />
          </mxGeometry>
        </mxCell>
        <mxCell id="i-m1rZ2BCzPFvipgKAng-67" value="N" style="resizable=0;html=1;whiteSpace=wrap;align=right;verticalAlign=bottom;" connectable="0" vertex="1" parent="i-m1rZ2BCzPFvipgKAng-66">
          <mxGeometry x="1" relative="1" as="geometry">
            <mxPoint x="17" y="-153" as="offset" />
          </mxGeometry>
        </mxCell>
        <mxCell id="i-m1rZ2BCzPFvipgKAng-68" value="1" style="text;html=1;align=center;verticalAlign=middle;resizable=0;points=[];autosize=1;strokeColor=none;fillColor=none;fontSize=16;" vertex="1" parent="1">
          <mxGeometry x="363" y="384" width="27" height="31" as="geometry" />
        </mxCell>
        <mxCell id="i-m1rZ2BCzPFvipgKAng-73" value="" style="endArrow=none;html=1;rounded=0;dashed=1;dashPattern=1 2;fontSize=12;startSize=8;endSize=8;curved=1;exitX=0.87;exitY=0.177;exitDx=0;exitDy=0;exitPerimeter=0;entryX=0.571;entryY=0.019;entryDx=0;entryDy=0;entryPerimeter=0;" edge="1" parent="1" source="i-m1rZ2BCzPFvipgKAng-62" target="i-m1rZ2BCzPFvipgKAng-39">
          <mxGeometry relative="1" as="geometry">
            <mxPoint x="267" y="-136" as="sourcePoint" />
            <mxPoint x="378" y="166" as="targetPoint" />
          </mxGeometry>
        </mxCell>
        <mxCell id="i-m1rZ2BCzPFvipgKAng-74" value="N" style="resizable=0;html=1;whiteSpace=wrap;align=right;verticalAlign=bottom;" connectable="0" vertex="1" parent="i-m1rZ2BCzPFvipgKAng-73">
          <mxGeometry x="1" relative="1" as="geometry">
            <mxPoint x="13" y="-2" as="offset" />
          </mxGeometry>
        </mxCell>
        <mxCell id="i-m1rZ2BCzPFvipgKAng-81" value="" style="endArrow=none;html=1;rounded=0;dashed=1;dashPattern=1 2;fontSize=12;startSize=8;endSize=8;curved=1;exitX=0.579;exitY=0.967;exitDx=0;exitDy=0;exitPerimeter=0;entryX=0.5;entryY=0;entryDx=0;entryDy=0;" edge="1" parent="1" source="i-m1rZ2BCzPFvipgKAng-9" target="i-m1rZ2BCzPFvipgKAng-51">
          <mxGeometry relative="1" as="geometry">
            <mxPoint x="185" y="-182" as="sourcePoint" />
            <mxPoint x="402" y="182" as="targetPoint" />
          </mxGeometry>
        </mxCell>
        <mxCell id="i-m1rZ2BCzPFvipgKAng-82" value="N" style="resizable=0;html=1;whiteSpace=wrap;align=right;verticalAlign=bottom;" connectable="0" vertex="1" parent="i-m1rZ2BCzPFvipgKAng-81">
          <mxGeometry x="1" relative="1" as="geometry">
            <mxPoint x="13" y="-2" as="offset" />
          </mxGeometry>
        </mxCell>
        <mxCell id="i-m1rZ2BCzPFvipgKAng-83" value="1:N" style="shape=rhombus;perimeter=rhombusPerimeter;whiteSpace=wrap;html=1;align=center;" vertex="1" parent="1">
          <mxGeometry x="192" y="328" width="120" height="60" as="geometry" />
        </mxCell>
        <mxCell id="i-m1rZ2BCzPFvipgKAng-85" value="Id_beneficiario" style="text;strokeColor=none;fillColor=none;align=left;verticalAlign=top;spacingLeft=4;spacingRight=4;overflow=hidden;rotatable=0;points=[[0,0.5],[1,0.5]];portConstraint=eastwest;whiteSpace=wrap;html=1;" vertex="1" parent="1">
          <mxGeometry x="103" y="324" width="140" height="26" as="geometry" />
        </mxCell>
        <mxCell id="i-m1rZ2BCzPFvipgKAng-86" value="id_contrato_vida" style="text;strokeColor=none;fillColor=none;align=left;verticalAlign=top;spacingLeft=4;spacingRight=4;overflow=hidden;rotatable=0;points=[[0,0.5],[1,0.5]];portConstraint=eastwest;whiteSpace=wrap;html=1;" vertex="1" parent="1">
          <mxGeometry x="97" y="343" width="140" height="26" as="geometry" />
        </mxCell>
        <mxCell id="i-m1rZ2BCzPFvipgKAng-88" value="id_cliente" style="text;strokeColor=none;fillColor=none;align=left;verticalAlign=top;spacingLeft=4;spacingRight=4;overflow=hidden;rotatable=0;points=[[0,0.5],[1,0.5]];portConstraint=eastwest;whiteSpace=wrap;html=1;" vertex="1" parent="1">
          <mxGeometry x="103" y="364" width="140" height="26" as="geometry" />
        </mxCell>
        <mxCell id="i-m1rZ2BCzPFvipgKAng-89" value="" style="endArrow=none;html=1;rounded=0;dashed=1;dashPattern=1 2;fontSize=12;startSize=8;endSize=8;curved=1;entryX=0.5;entryY=0;entryDx=0;entryDy=0;exitX=0;exitY=0.5;exitDx=0;exitDy=0;" edge="1" parent="1" source="i-m1rZ2BCzPFvipgKAng-20" target="i-m1rZ2BCzPFvipgKAng-43">
          <mxGeometry relative="1" as="geometry">
            <mxPoint x="-64" y="4" as="sourcePoint" />
            <mxPoint x="-78" y="143" as="targetPoint" />
          </mxGeometry>
        </mxCell>
        <mxCell id="i-m1rZ2BCzPFvipgKAng-90" value="N" style="resizable=0;html=1;whiteSpace=wrap;align=right;verticalAlign=bottom;" connectable="0" vertex="1" parent="i-m1rZ2BCzPFvipgKAng-89">
          <mxGeometry x="1" relative="1" as="geometry">
            <mxPoint x="90" y="-123" as="offset" />
          </mxGeometry>
        </mxCell>
        <mxCell id="i-m1rZ2BCzPFvipgKAng-91" value="" style="endArrow=none;html=1;rounded=0;dashed=1;dashPattern=1 2;fontSize=12;startSize=8;endSize=8;curved=1;entryX=0.5;entryY=0;entryDx=0;entryDy=0;exitX=0.486;exitY=0.923;exitDx=0;exitDy=0;exitPerimeter=0;" edge="1" parent="1" source="i-m1rZ2BCzPFvipgKAng-53" target="i-m1rZ2BCzPFvipgKAng-14">
          <mxGeometry relative="1" as="geometry">
            <mxPoint x="-199" y="-26" as="sourcePoint" />
            <mxPoint x="-199" y="235" as="targetPoint" />
          </mxGeometry>
        </mxCell>
        <mxCell id="i-m1rZ2BCzPFvipgKAng-92" value="N" style="resizable=0;html=1;whiteSpace=wrap;align=right;verticalAlign=bottom;" connectable="0" vertex="1" parent="i-m1rZ2BCzPFvipgKAng-91">
          <mxGeometry x="1" relative="1" as="geometry">
            <mxPoint x="12" y="-241" as="offset" />
          </mxGeometry>
        </mxCell>
        <mxCell id="i-m1rZ2BCzPFvipgKAng-96" value="" style="endArrow=none;html=1;rounded=0;dashed=1;dashPattern=1 2;fontSize=12;startSize=8;endSize=8;curved=1;exitX=0.25;exitY=0;exitDx=0;exitDy=0;entryX=0.471;entryY=1.192;entryDx=0;entryDy=0;entryPerimeter=0;" edge="1" parent="1" source="i-m1rZ2BCzPFvipgKAng-47" target="i-m1rZ2BCzPFvipgKAng-38">
          <mxGeometry relative="1" as="geometry">
            <mxPoint x="449" y="-227" as="sourcePoint" />
            <mxPoint x="72" y="-137" as="targetPoint" />
          </mxGeometry>
        </mxCell>
        <mxCell id="i-m1rZ2BCzPFvipgKAng-97" value="N" style="resizable=0;html=1;whiteSpace=wrap;align=right;verticalAlign=bottom;" connectable="0" vertex="1" parent="i-m1rZ2BCzPFvipgKAng-96">
          <mxGeometry x="1" relative="1" as="geometry">
            <mxPoint x="13" y="-2" as="offset" />
          </mxGeometry>
        </mxCell>
        <mxCell id="i-m1rZ2BCzPFvipgKAng-98" value="" style="endArrow=none;html=1;rounded=0;dashed=1;dashPattern=1 2;fontSize=12;startSize=8;endSize=8;curved=1;exitX=0.25;exitY=0;exitDx=0;exitDy=0;entryX=1;entryY=0.5;entryDx=0;entryDy=0;" edge="1" parent="1" source="i-m1rZ2BCzPFvipgKAng-39" target="i-m1rZ2BCzPFvipgKAng-19">
          <mxGeometry relative="1" as="geometry">
            <mxPoint x="298" y="-163" as="sourcePoint" />
            <mxPoint x="-79" y="-73" as="targetPoint" />
          </mxGeometry>
        </mxCell>
        <mxCell id="i-m1rZ2BCzPFvipgKAng-99" value="N" style="resizable=0;html=1;whiteSpace=wrap;align=right;verticalAlign=bottom;" connectable="0" vertex="1" parent="i-m1rZ2BCzPFvipgKAng-98">
          <mxGeometry x="1" relative="1" as="geometry">
            <mxPoint x="13" y="-2" as="offset" />
          </mxGeometry>
        </mxCell>
        <mxCell id="i-m1rZ2BCzPFvipgKAng-100" value="" style="endArrow=none;html=1;rounded=0;dashed=1;dashPattern=1 2;fontSize=12;startSize=8;endSize=8;curved=1;exitX=0;exitY=0.5;exitDx=0;exitDy=0;entryX=0.5;entryY=0;entryDx=0;entryDy=0;" edge="1" parent="1" source="i-m1rZ2BCzPFvipgKAng-19">
          <mxGeometry relative="1" as="geometry">
            <mxPoint x="267" y="-141" as="sourcePoint" />
            <mxPoint x="-110" y="-51" as="targetPoint" />
          </mxGeometry>
        </mxCell>
        <mxCell id="i-m1rZ2BCzPFvipgKAng-101" value="N" style="resizable=0;html=1;whiteSpace=wrap;align=right;verticalAlign=bottom;" connectable="0" vertex="1" parent="i-m1rZ2BCzPFvipgKAng-100">
          <mxGeometry x="1" relative="1" as="geometry">
            <mxPoint x="13" y="-2" as="offset" />
          </mxGeometry>
        </mxCell>
        <mxCell id="i-m1rZ2BCzPFvipgKAng-102" value="" style="endArrow=none;html=1;rounded=0;dashed=1;dashPattern=1 2;fontSize=12;startSize=8;endSize=8;curved=1;entryX=0;entryY=0.5;entryDx=0;entryDy=0;exitX=0.75;exitY=0;exitDx=0;exitDy=0;" edge="1" parent="1" source="i-m1rZ2BCzPFvipgKAng-47" target="i-m1rZ2BCzPFvipgKAng-13">
          <mxGeometry relative="1" as="geometry">
            <mxPoint x="274" y="-191" as="sourcePoint" />
            <mxPoint x="312" y="155" as="targetPoint" />
          </mxGeometry>
        </mxCell>
        <mxCell id="i-m1rZ2BCzPFvipgKAng-103" value="N" style="resizable=0;html=1;whiteSpace=wrap;align=right;verticalAlign=bottom;" connectable="0" vertex="1" parent="i-m1rZ2BCzPFvipgKAng-102">
          <mxGeometry x="1" relative="1" as="geometry" />
        </mxCell>
      </root>
    </mxGraphModel>
  </diagram>
</mxfile>
